<svg xmlns="http://www.w3.org/2000/svg" width="1024" height="1024" viewBox="0 0 1024 1024">
<g>
<path d="M 721.00 910.06 C714.12,907.97 710.13,904.93 706.18,898.79 C703.96,895.33 698.25,886.88 693.50,880.00 C688.74,873.12 677.60,856.81 668.74,843.75 L 652.64 820.00 L 449.57 819.98 C254.29,819.96 246.34,819.89 242.43,818.11 C236.90,815.60 231.33,810.52 228.69,805.59 L 226.50 801.50 L 226.24 492.53 C225.96,149.01 225.40,176.99 232.72,168.89 C234.72,166.67 238.19,163.88 240.43,162.68 L 244.50 160.50 L 429.72 160.24 L 614.93 159.98 L 618.22 163.72 C630.00,177.15 649.82,196.75 661.00,206.05 C679.20,221.17 703.46,237.66 722.06,247.53 C726.99,250.15 732.14,253.41 733.51,254.78 L 736.00 257.27 L 736.00 528.82 C736.00,739.60 735.73,801.11 734.78,803.72 C733.98,805.94 733.90,807.58 734.53,808.52 C735.06,809.31 743.30,821.24 752.83,835.04 C762.36,848.84 770.80,861.66 771.58,863.53 C774.93,871.55 772.24,883.10 765.15,891.18 C761.71,895.09 744.25,907.16 738.63,909.51 C734.90,911.07 725.28,911.37 721.00,910.06 ZM 736.29 898.88 C741.73,896.15 751.70,889.48 755.38,886.13 C759.07,882.75 761.95,876.51 761.98,871.81 C762.00,868.13 760.73,865.92 749.28,849.72 C743.69,841.80 717.71,804.00 685.23,756.51 C674.62,741.01 668.59,733.08 666.70,732.18 C662.96,730.39 660.28,731.41 650.42,738.36 C646.07,741.43 640.99,744.96 639.15,746.22 C632.50,750.73 628.12,755.16 627.50,757.99 C626.47,762.70 628.30,766.95 636.15,778.01 C640.24,783.78 648.35,795.47 654.16,804.00 C659.98,812.53 669.63,826.61 675.62,835.29 C681.60,843.97 691.67,858.73 698.00,868.08 C715.05,893.28 717.77,896.89 721.29,899.04 C725.47,901.58 731.04,901.53 736.29,898.88 ZM 640.64 803.25 C639.33,801.19 633.21,792.08 627.04,783.00 L 615.83 766.50 L 616.32 760.68 C616.74,755.88 616.53,754.77 615.16,754.28 C611.60,753.02 610.85,751.83 612.47,750.04 C613.84,748.52 613.70,748.16 611.00,746.16 C609.36,744.95 605.22,739.80 601.79,734.73 C596.42,726.77 595.58,724.92 595.70,721.28 L 595.85 717.06 L 588.17 720.91 C569.09,730.49 541.48,738.91 515.43,743.08 C495.99,746.20 465.61,746.23 445.50,743.15 C410.98,737.87 377.29,725.25 349.43,707.18 C321.36,688.99 293.31,659.83 275.31,630.14 C255.62,597.68 247.09,571.40 240.19,522.00 C239.61,517.89 239.23,567.24 239.14,656.30 C238.99,811.84 238.53,800.92 245.30,805.04 C248.45,806.96 251.88,806.99 445.76,807.00 L 643.03 807.00 L 640.64 803.25 ZM 723.50 660.50 C723.50,588.17 723.40,529.34 723.28,529.75 C723.17,530.16 722.37,535.00 721.51,540.50 C717.96,563.31 710.34,587.21 699.51,609.50 C687.53,634.14 674.51,652.36 653.75,673.50 C646.19,681.20 640.01,687.84 640.00,688.25 C640.00,688.66 641.13,689.00 642.51,689.00 C644.60,689.00 646.26,690.92 652.68,700.75 C658.26,709.30 660.35,713.40 660.37,715.81 C660.40,718.79 660.64,719.06 662.77,718.52 C664.28,718.14 667.13,718.86 670.58,720.49 C675.12,722.64 676.81,724.25 680.83,730.28 C698.09,756.14 722.77,792.00 723.30,792.00 C723.41,792.00 723.50,732.82 723.50,660.50 ZM 622.53 738.95 C623.20,737.87 608.23,715.00 606.87,715.00 C605.32,715.00 604.95,717.04 606.09,719.23 C609.27,725.31 619.57,740.00 620.65,740.00 C621.33,740.00 622.17,739.53 622.53,738.95 ZM 649.44 720.10 C650.00,719.19 640.53,704.42 636.71,700.25 C634.72,698.08 632.00,697.21 632.00,698.75 C632.00,699.16 635.25,704.34 639.22,710.25 C645.96,720.29 648.07,722.32 649.44,720.10 ZM 506.00 708.90 C527.89,706.36 550.81,699.51 572.50,689.00 C588.79,681.11 600.90,673.38 613.50,662.81 C663.98,620.49 691.87,558.49 689.67,493.50 C688.35,454.49 679.45,424.41 659.54,391.59 C629.39,341.91 582.02,308.72 524.42,296.92 C511.48,294.27 479.89,293.22 464.97,294.95 C427.00,299.34 391.67,313.38 361.37,336.11 C350.07,344.59 334.14,359.64 325.48,370.03 C310.72,387.73 294.13,416.75 287.54,436.43 C279.41,460.69 275.38,487.64 276.37,511.00 C278.51,561.07 294.81,602.68 326.97,640.21 L 336.14 650.92 L 389.15 651.21 C440.29,651.49 442.21,651.57 443.58,653.44 C445.85,656.55 445.34,660.59 442.37,662.93 C439.79,664.95 438.72,665.00 396.24,665.00 C356.86,665.00 352.88,665.15 354.06,666.57 C356.89,669.98 380.00,684.49 391.42,690.01 C427.07,707.28 465.42,713.60 506.00,708.90 ZM 241.55 476.95 C243.57,460.55 247.49,443.64 253.46,425.48 C265.85,387.78 287.99,353.28 318.28,324.45 L 329.27 314.00 L 312.63 314.00 C297.33,314.00 295.84,313.84 294.00,312.00 C291.60,309.60 291.43,306.25 293.56,303.22 C295.10,301.02 295.38,301.00 321.15,301.00 L 347.18 301.00 L 357.34 294.68 C382.59,278.97 407.11,269.10 436.00,263.00 C467.26,256.41 495.16,255.63 524.46,260.52 C555.84,265.76 583.84,276.06 609.42,291.77 C648.96,316.07 678.59,348.85 699.58,391.50 C709.52,411.70 715.73,429.77 720.12,451.25 C721.89,459.91 723.37,466.88 723.42,466.75 C723.46,466.61 723.38,421.16 723.23,365.75 L 722.95 265.00 L 670.73 264.98 C621.97,264.96 618.23,264.83 614.40,263.10 C612.03,262.02 609.41,259.77 608.15,257.75 C606.04,254.33 606.00,253.49 606.00,213.63 L 606.00 173.00 L 427.25 173.01 C286.27,173.03 247.98,173.29 246.03,174.28 C244.67,174.97 242.53,177.05 241.28,178.91 L 239.00 182.30 L 239.00 335.81 C239.00,420.25 239.26,489.07 239.58,488.75 C239.90,488.43 240.79,483.12 241.55,476.95 ZM 700.50 249.39 C676.11,234.75 655.51,218.51 632.25,195.58 L 618.00 181.53 L 618.00 215.71 L 618.00 249.89 L 620.22 251.44 C622.15,252.79 628.05,253.00 664.47,253.00 L 706.50 252.99 L 700.50 249.39 ZM 724.07 894.74 C722.74,894.06 715.76,884.85 708.57,874.28 C678.46,830.00 672.32,821.03 665.98,812.00 C662.32,806.78 653.62,794.06 646.66,783.75 C629.52,758.37 629.50,758.61 649.07,745.67 C653.78,742.55 658.77,740.00 660.14,740.00 C663.53,740.00 664.71,741.45 680.15,764.50 C687.52,775.50 703.44,798.80 715.52,816.29 C756.21,875.14 754.00,871.68 754.00,876.40 C754.00,881.12 752.28,883.20 743.67,888.86 C732.92,895.94 728.84,897.16 724.07,894.74 ZM 462.50 663.81 C461.40,663.18 460.17,662.18 459.77,661.59 C458.36,659.51 459.01,654.99 461.00,653.00 C462.91,651.09 464.33,651.00 492.07,651.00 C525.35,651.00 526.95,651.33 526.98,658.18 C526.99,659.89 526.05,661.60 524.37,662.93 C521.84,664.92 520.57,665.00 493.12,664.97 C473.68,664.95 463.86,664.58 462.50,663.81 ZM 314.22 590.44 C311.42,588.48 311.20,583.03 313.83,580.65 C315.51,579.13 328.12,579.00 474.77,579.00 L 633.89 579.00 L 635.44 581.22 C637.57,584.25 637.40,587.60 635.00,590.00 C633.02,591.98 631.67,592.00 474.72,592.00 C333.09,592.00 316.21,591.84 314.22,590.44 ZM 313.00 533.00 C310.21,530.21 310.47,526.56 313.63,524.07 C316.16,522.09 317.45,522.00 344.68,522.00 L 373.09 522.00 L 375.55 524.45 C376.90,525.80 378.00,527.41 378.00,528.02 C378.00,529.56 375.93,533.35 374.60,534.23 C374.00,534.64 360.34,534.98 344.25,534.98 C316.32,535.00 314.91,534.91 313.00,533.00 ZM 392.00 533.00 C389.32,530.32 389.48,527.43 392.45,524.45 L 394.91 522.00 L 513.52 522.00 C591.63,522.00 632.78,522.35 634.02,523.01 C636.82,524.51 637.69,530.58 635.46,533.04 C633.72,534.97 631.60,535.00 513.85,535.00 C395.33,535.00 393.98,534.98 392.00,533.00 ZM 380.21 482.87 C374.28,481.16 373.01,477.49 373.00,462.14 C373.00,450.88 372.77,448.87 371.55,449.34 C370.75,449.65 357.84,449.98 342.85,450.07 C315.69,450.23 315.60,450.22 313.78,447.98 C311.95,445.72 312.12,442.90 314.24,440.25 C315.00,439.30 322.22,439.00 344.12,439.00 L 373.00 439.00 L 373.00 434.00 L 373.00 429.00 L 377.45 429.00 L 381.90 429.00 L 382.20 434.20 L 382.50 439.40 L 388.00 439.18 C394.88,438.91 396.24,439.76 395.82,444.10 L 395.50 447.50 L 388.75 447.80 L 382.00 448.09 L 382.00 460.11 C382.00,466.72 382.47,473.00 383.04,474.07 C383.85,475.58 385.15,476.00 389.04,476.00 L 394.00 476.00 L 394.00 479.37 C394.00,482.49 393.72,482.78 390.25,483.36 C385.61,484.13 384.35,484.06 380.21,482.87 ZM 416.68 483.05 C412.04,481.55 406.90,476.99 404.91,472.62 C402.72,467.78 402.39,457.77 404.23,451.64 C407.08,442.13 418.53,436.12 428.65,438.83 C437.70,441.25 441.33,445.95 442.56,456.82 L 443.26 463.00 L 427.50 463.00 L 411.74 463.00 L 412.33 466.64 C413.13,471.57 416.27,474.63 421.85,475.93 C426.30,476.96 428.29,476.72 438.96,473.89 C440.02,473.60 440.43,474.43 440.46,476.98 C440.49,479.79 439.98,480.71 437.81,481.76 C434.40,483.40 420.41,484.25 416.68,483.05 ZM 433.00 453.95 C433.00,449.23 429.14,446.00 423.51,446.00 C420.99,446.00 417.85,446.70 416.54,447.57 C414.46,448.93 412.00,453.58 412.00,456.15 C412.00,456.62 416.73,457.00 422.50,457.00 L 433.00 457.00 L 433.00 453.95 ZM 509.50 483.28 C506.33,482.52 503.08,478.96 502.00,475.07 C501.46,473.11 501.01,466.21 501.01,459.75 L 501.00 448.00 L 497.94 448.00 C494.96,448.00 494.89,447.89 495.19,443.75 C495.48,439.76 495.70,439.48 498.75,439.19 C501.94,438.88 502.00,438.78 502.00,433.94 C502.00,429.15 502.09,429.00 504.92,429.00 C506.52,429.00 508.55,428.73 509.42,428.39 C510.74,427.88 511.00,428.68 511.00,433.28 L 511.00 438.77 L 517.50 439.46 L 524.00 440.16 L 524.00 444.08 L 524.00 448.00 L 517.62 448.00 C509.96,448.00 510.17,447.59 510.36,462.28 C510.53,474.83 511.19,476.00 518.12,476.00 C523.00,476.00 523.00,476.00 523.00,479.38 C523.00,482.36 522.63,482.82 519.88,483.38 C516.44,484.06 512.58,484.03 509.50,483.28 ZM 448.00 482.47 C448.00,482.18 451.00,477.79 454.66,472.72 C458.33,467.65 463.75,460.01 466.72,455.75 L 472.10 448.00 L 461.55 448.00 L 451.00 448.00 L 451.00 445.08 C451.00,438.90 450.72,439.00 468.36,439.02 C477.24,439.02 485.11,439.42 485.87,439.90 C487.54,440.96 488.58,439.24 471.68,463.31 L 457.85 483.00 L 452.93 483.00 C450.22,483.00 448.00,482.76 448.00,482.47 ZM 560.82 450.19 C557.54,449.81 555.75,447.80 555.75,444.50 C555.75,438.90 555.06,439.00 595.42,439.00 C623.01,439.00 632.91,439.31 633.80,440.20 C635.54,441.94 635.27,447.53 633.38,449.10 C632.10,450.16 624.68,450.45 597.63,450.47 C578.86,450.49 562.30,450.36 560.82,450.19 ZM 370.45 377.55 C367.55,374.64 367.29,370.96 369.83,368.65 C371.51,367.13 381.55,367.00 493.76,367.00 C603.42,367.00 616.02,367.16 617.43,368.57 C619.91,371.05 619.40,375.54 616.37,377.93 C613.73,380.00 613.62,380.00 493.32,380.00 L 372.91 380.00 L 370.45 377.55 ZM 294.00 242.00 C291.60,239.60 291.43,236.25 293.56,233.22 L 295.11 231.00 L 363.50 231.00 L 431.89 231.00 L 433.44 233.22 C435.57,236.25 435.40,239.60 433.00,242.00 C431.04,243.96 429.67,244.00 363.50,244.00 C297.33,244.00 295.96,243.96 294.00,242.00 Z" fill="rgba(0,0,0,1)"/>
</g>
</svg>