<svg xmlns="http://www.w3.org/2000/svg" viewBox="0 0 512 512" width="512" height="512"><defs><style>.bg-paper { fill: #F0F2F5; } /* Ljusgrå pappersbakgrund */
      .bg-paper-fold { fill: #BFC9D2; } /* Mörkare färg för baksidan av det vikta hörnet */
      .text-normal { fill: #BDC3C7; } /* Normal textfärg */
      .glass-frame { fill: #2C3E50; } /* Mörkblå ram och handtag */
      .glass-lens { fill: #E1F5FE; opacity: 0.9; } /* Ljusblå linsbakgrund */
      .text-magnified { fill: #f;opacity: 0.5;  } /* Förstorad text */
      .reflection { fill: #FFFFFF; opacity: 0.6; } /* Ljusreflektion */</style><clipPath id="lens-clip"><path cx="0" cy="0" r="105" d="M105.008 0A105.008 105.008 0 0 1 0 105.008 105.008 105.008 0 0 1 -105.008 0a105.008 105.008 0 0 1 210.016 0"/></clipPath></defs><g id="full-document"><path class="bg-paper" d="M80 48h320l48 48v384a16 16 0 0 1 -16 16H80a16 16 0 0 1 -16 -16V64a16 16 0 0 1 16 -16"/><g id="paper-corner"><path class="bg-paper-fold" d="m400 48 48 48h-48Z"/></g><g class="text-normal"><path x="112" y="96" width="160" height="16" rx="4" d="M116 96h152a4 4 0 0 1 4 4v8a4 4 0 0 1 -4 4H116a4 4 0 0 1 -4 -4v-8a4 4 0 0 1 4 -4"/><path x="112" y="128" width="288" height="16" rx="4" d="M116 128h280a4 4 0 0 1 4 4v8a4 4 0 0 1 -4 4H116a4 4 0 0 1 -4 -4v-8a4 4 0 0 1 4 -4"/><path x="112" y="160" width="240" height="16" rx="4" d="M116 160h232a4 4 0 0 1 4 4v8a4 4 0 0 1 -4 4H116a4 4 0 0 1 -4 -4v-8a4 4 0 0 1 4 -4"/><path x="112" y="208" width="300" height="16" rx="4" d="M116 208h292a4 4 0 0 1 4 4v8a4 4 0 0 1 -4 4H116a4 4 0 0 1 -4 -4v-8a4 4 0 0 1 4 -4"/><path x="112" y="240" width="260" height="16" rx="4" d="M116 240h252a4 4 0 0 1 4 4v8a4 4 0 0 1 -4 4H116a4 4 0 0 1 -4 -4v-8a4 4 0 0 1 4 -4"/><path x="112" y="272" width="288" height="16" rx="4" d="M116 272h280a4 4 0 0 1 4 4v8a4 4 0 0 1 -4 4H116a4 4 0 0 1 -4 -4v-8a4 4 0 0 1 4 -4"/><path x="112" y="320" width="300" height="16" rx="4" d="M116 320h292a4 4 0 0 1 4 4v8a4 4 0 0 1 -4 4H116a4 4 0 0 1 -4 -4v-8a4 4 0 0 1 4 -4"/><path x="112" y="352" width="190" height="16" rx="4" d="M116 352h182a4 4 0 0 1 4 4v8a4 4 0 0 1 -4 4H116a4 4 0 0 1 -4 -4v-8a4 4 0 0 1 4 -4"/><path x="112" y="384" width="288" height="16" rx="4" d="M116 384h280a4 4 0 0 1 4 4v8a4 4 0 0 1 -4 4H116a4 4 0 0 1 -4 -4v-8a4 4 0 0 1 4 -4"/><path x="112" y="416" width="220" height="16" rx="4" d="M116 416h212a4 4 0 0 1 4 4v8a4 4 0 0 1 -4 4H116a4 4 0 0 1 -4 -4v-8a4 4 0 0 1 4 -4"/></g></g><g transform="rotate(-25 723.839 -596.713)"><path class="glass-frame" x="-20" y="110" width="40" height="140" rx="20" ry="20" d="M0 110a20 20 0 0 1 20 20v100a20 20 0 0 1 -20 20 20 20 0 0 1 -20 -20V130a20 20 0 0 1 20 -20"/><path class="glass-frame" cx="0" cy="0" r="120" d="M120 0A120 120 0 0 1 0 120 120 120 0 0 1 -120 0a120 120 0 0 1 240 0"/><path class="glass-lens" cx="0" cy="0" r="105" d="M105.008 0A105.008 105.008 0 0 1 0 105.008 105.008 105.008 0 0 1 -105.008 0a105.008 105.008 0 0 1 210.016 0"/><g clip-path="url(#lens-clip)"><g class="text-magnified" transform="rotate(25 1052.088 -583.097)scale(1.5)"><path x="112" y="208" width="300" height="16" rx="4" d="M116 208h292a4 4 0 0 1 4 4v8a4 4 0 0 1 -4 4H116a4 4 0 0 1 -4 -4v-8a4 4 0 0 1 4 -4"/><path x="112" y="240" width="260" height="16" rx="4" d="M116 240h252a4 4 0 0 1 4 4v8a4 4 0 0 1 -4 4H116a4 4 0 0 1 -4 -4v-8a4 4 0 0 1 4 -4"/><path x="112" y="272" width="288" height="16" rx="4" d="M116 272h280a4 4 0 0 1 4 4v8a4 4 0 0 1 -4 4H116a4 4 0 0 1 -4 -4v-8a4 4 0 0 1 4 -4"/><path x="112" y="320" width="300" height="16" rx="4" d="M116 320h292a4 4 0 0 1 4 4v8a4 4 0 0 1 -4 4H116a4 4 0 0 1 -4 -4v-8a4 4 0 0 1 4 -4"/></g></g><path class="reflection" d="M-70 -70q40 -40 100 -20l-10 20q-40 -10 -70 20Z"/></g></svg>